<svg width="14" height="14" viewBox="0 0 12 12" fill="none" xmlns="http://www.w3.org/2000/svg" color="#009999"><path fill-rule="evenodd" clip-rule="evenodd" d="M5.31705 0.19489C5.49728 0.0840204 5.70484 0 5.9375 0C6.16982 0 6.37599 0.0830825 6.55507 0.193473C6.7325 0.302852 6.89673 0.447538 7.04638 0.587831C7.09779 0.63603 7.14684 0.683046 7.19464 0.728875L7.19473 0.72896L7.19476 0.728987C7.29249 0.822666 7.38504 0.91139 7.48207 0.995147C7.62405 1.11772 7.75302 1.20887 7.87704 1.26081C7.99972 1.31219 8.15242 1.3384 8.3367 1.35093C8.4621 1.35946 8.58727 1.36115 8.72006 1.36294H8.72007C8.78661 1.36384 8.85506 1.36476 8.92641 1.36659C9.31814 1.3766 9.80316 1.41054 10.1338 1.74119C10.4641 2.07147 10.5011 2.56145 10.5125 2.956C10.5147 3.03293 10.5158 3.10623 10.5169 3.17724C10.5189 3.30569 10.5207 3.42666 10.5287 3.54809C10.5408 3.73251 10.5659 3.88194 10.6144 3.99852C10.6633 4.11604 10.7524 4.24177 10.875 4.38343C10.9568 4.47794 11.0434 4.56845 11.1349 4.66421L11.1349 4.66422L11.1349 4.66423L11.135 4.66425C11.1831 4.71454 11.2325 4.76628 11.2834 4.82081C11.4246 4.97199 11.57 5.13813 11.6801 5.31705C11.791 5.49728 11.875 5.70484 11.875 5.9375C11.875 6.16982 11.7919 6.37599 11.6815 6.55507C11.5721 6.7325 11.4275 6.89673 11.2872 7.04638C11.239 7.0978 11.1919 7.14685 11.1461 7.19466L11.146 7.19477L11.146 7.19479C11.0523 7.2925 10.9636 7.38505 10.8799 7.48207C10.7573 7.62405 10.6661 7.75302 10.6142 7.87704C10.5628 7.99972 10.5366 8.15242 10.5241 8.3367C10.5155 8.46208 10.5139 8.58725 10.5121 8.72002V8.72004V8.72006V8.72007V8.72008C10.5112 8.78661 10.5102 8.85506 10.5084 8.92641C10.4984 9.31814 10.4645 9.80316 10.1338 10.1338C9.80353 10.4641 9.31355 10.5011 8.919 10.5125C8.84207 10.5147 8.76877 10.5158 8.69776 10.5169C8.56931 10.5189 8.44834 10.5207 8.32691 10.5287C8.14249 10.5408 7.99306 10.5659 7.87648 10.6144C7.75896 10.6633 7.63323 10.7524 7.49157 10.875C7.39706 10.9568 7.30655 11.0434 7.21079 11.1349L7.21078 11.1349L7.21077 11.1349L7.21075 11.135C7.16046 11.1831 7.10872 11.2325 7.05419 11.2834C6.90301 11.4246 6.73687 11.57 6.55795 11.6801C6.37772 11.791 6.17016 11.875 5.9375 11.875C5.70518 11.875 5.49901 11.7919 5.31993 11.6815C5.1425 11.5721 4.97827 11.4275 4.82862 11.2872C4.7772 11.239 4.72815 11.1919 4.68034 11.1461L4.68023 11.146L4.68021 11.146C4.5825 11.0523 4.48995 10.9636 4.39293 10.8799C4.25095 10.7573 4.12198 10.6661 3.99796 10.6142C3.87528 10.5628 3.72258 10.5366 3.5383 10.5241C3.41292 10.5155 3.28775 10.5139 3.15498 10.5121H3.15496H3.15494H3.15493H3.15492C3.08838 10.5112 3.01994 10.5102 2.94859 10.5084C2.55686 10.4984 2.07184 10.4645 1.74119 10.1338C1.41091 9.80353 1.37385 9.31355 1.36251 8.919C1.36029 8.84208 1.35917 8.76878 1.35808 8.69777C1.35611 8.56931 1.35426 8.44834 1.34628 8.32691C1.33416 8.14249 1.30907 7.99306 1.26058 7.87648C1.2117 7.75896 1.12265 7.63323 0.999997 7.49157C0.91817 7.39706 0.831628 7.30655 0.740055 7.21078L0.740049 7.21077C0.691957 7.16047 0.642478 7.10873 0.591567 7.05419C0.450443 6.90301 0.304957 6.73687 0.19489 6.55795C0.0840204 6.37772 0 6.17016 0 5.9375C0 5.70518 0.0830825 5.49901 0.193473 5.31993C0.302852 5.1425 0.447538 4.97827 0.587831 4.82862C0.63603 4.77721 0.683046 4.72816 0.728875 4.68036L0.72896 4.68027L0.728987 4.68024C0.822666 4.58251 0.91139 4.48996 0.995147 4.39293C1.11772 4.25095 1.20887 4.12198 1.26081 3.99796C1.31219 3.87528 1.3384 3.72258 1.35093 3.5383C1.35946 3.41291 1.36115 3.28773 1.36294 3.15494V3.15494V3.15494V3.15493C1.36384 3.08839 1.36476 3.01994 1.36659 2.94859C1.3766 2.55686 1.41054 2.07184 1.74119 1.74119C2.07147 1.41091 2.56145 1.37385 2.956 1.36251C3.03292 1.36029 3.10622 1.35917 3.17723 1.35808C3.30569 1.35611 3.42666 1.35426 3.54809 1.34628C3.73251 1.33416 3.88194 1.30907 3.99852 1.26058C4.11604 1.2117 4.24177 1.12265 4.38343 0.999997C4.47794 0.91817 4.56845 0.831628 4.66422 0.740055L4.66423 0.740049C4.71453 0.691957 4.76627 0.642478 4.82081 0.591567C4.97199 0.450443 5.13813 0.304957 5.31705 0.19489ZM8.72262 5.02315C8.9424 4.81348 8.9506 4.46533 8.74092 4.24555C8.53125 4.02576 8.1831 4.01757 7.96332 4.22724L5.13314 6.92725L3.91046 5.75882C3.69085 5.54895 3.3427 5.55685 3.13284 5.77646C2.92298 5.99606 2.93088 6.34421 3.15048 6.55408L4.75283 8.08533C4.96529 8.28836 5.29983 8.2885 5.51246 8.08565L8.72262 5.02315Z" fill="#009999"></path></svg>